<?xml version="1.0" encoding="utf-8"?>
<!-- Generator: Adobe Illustrator 21.1.0, SVG Export Plug-In . SVG Version: 6.00 Build 0)  -->
<svg version="1.1" id="Layer_1" xmlns="http://www.w3.org/2000/svg" xmlns:xlink="http://www.w3.org/1999/xlink" x="0px" y="0px"
	 viewBox="0 0 64 64" style="enable-background:new 0 0 64 64;" xml:space="preserve">
<style type="text/css">
	.st0{fill:none;}
</style>
<g id="text_to_speach_settings">
	<path d="M18.6,48.4C8.2,46.7,1.2,36.9,2.9,26.5c0.6-3.6,2.2-6.9,4.6-9.6C6.8,19,6.2,22,5.9,22.7s0.2,2.5,0,2.9
		c-0.9,1.2-0.9,6.8,0,6.2c0.9-0.6-0.7-2.3,0.7-3c0,1.6,0.2,1.9,1.7,2.4c1.1,0.5,1.8,1.6,1.6,2.8c0,0.8,1-0.6,0.9,1.8
		c0.3,0.9,1.1,1.5,2,1.6c0.1,1.2-0.1,2.4-0.5,3.6c-0.5,1,0.9,2,1.5,2.1l-0.4,0.5c-2.2,2.2,2,2.5,5.2,4V37.1
		c-0.8,0.1-1.5-0.1-2.2-0.6c-1-1-1-0.5-1.6-1c-0.5-0.5-1,0.5-1.6-0.5c-0.5-1-1.9-2.7,0-4c1.9-1.3,2.3-0.6,3.2,1.3
		c0.9,1.9,1.8,1.4,1.8,0.8s-1.8-1.4-1.8-2.7c0-1.2,2.2,1,2.2-0.2s2-0.4,1.2-1.6c0.4,0.6,0-3.7,1.2-3.7s3.1-1.2,2.2-1.8
		s1.6-2.4,0.8-3.6c-0.8-1.2-4.3-1.2-4.3,0c0,1.2-1.7,2.5-2.5,1.9c-0.8-0.6-3.4-1.2,0.8-2.5s1.7-3.1,1.7-3.1s3-1,1.3-1.6
		c-1.4-0.6-2.8-1-4.3-1.2c1.2-1.2,2.2-2,2.7-2c1.3,0.1,2.7-0.1,4-0.4c1.1,0.1,2.2,0.3,3.3,0.6c0.1,2.4,0.9,4.7,2.3,6.5
		c2.4,2.4,0-4.8,2.4,0s0.2,6.4,2,9h9.8c-1.1-8.3-7-15.1-14.9-17.5h-0.2C16.8,5.4,4.7,11.7,1,23s2.6,23.5,13.9,27.1
		c1.2,0.4,2.4,0.7,3.7,0.8"/>
	<path d="M20.9,32.4c0-2.1,1.7-3.7,3.7-3.7l0,0h35.6c2.1,0,3.7,1.7,3.7,3.7v22.5c0,2.1-1.7,3.7-3.7,3.7H24.6c-2.1,0-3.7-1.7-3.7-3.7
		V32.4z M37.5,49.3c-0.5,0.6-1.2,0.9-2,0.9c-1,0-2-0.5-2.5-1.4c-0.8-1.5-1.1-3.1-1-4.8c-0.1-1.6,0.2-3.2,1-4.5
		c0.6-0.9,1.6-1.4,2.6-1.4c0.7,0,1.4,0.3,1.9,0.8c0.6,0.6,0.9,1.3,1.1,2.2l2.8-0.8c-0.2-1.3-0.8-2.5-1.7-3.4c-1-1.1-2.5-1.7-4-1.6
		c-1.8-0.1-3.6,0.8-4.7,2.2c-1.4,2-2.1,4.5-2,6.9c-0.1,2.4,0.6,4.7,2,6.7c1.1,1.4,2.7,2.2,4.5,2.2c1.4,0,2.7-0.5,3.7-1.4
		c1.1-1.2,1.9-2.7,2.2-4.3l-2.8-1.1C38.6,47.5,38.2,48.5,37.5,49.3z M52.5,49.3c-0.5,0.6-1.2,0.9-2,0.9c-1,0-2-0.5-2.5-1.4
		c-0.8-1.4-1.1-3-1-4.7c-0.2-1.6,0.2-3.2,0.9-4.6c0.6-0.9,1.6-1.4,2.6-1.4c0.7,0,1.4,0.3,1.9,0.8c0.6,0.6,0.9,1.3,1.1,2.2l2.8-0.8
		c-0.2-1.3-0.8-2.5-1.7-3.4c-1-1.1-2.5-1.7-4-1.6c-1.8-0.1-3.6,0.7-4.7,2.2c-1.4,2-2.1,4.5-2,6.9c-0.1,2.4,0.6,4.7,2,6.7
		c2,2.5,5.7,2.8,8.2,0.8c0,0,0,0,0,0c1.1-1.2,1.9-2.7,2.2-4.3l-2.8-1.1C53.6,47.5,53.1,48.5,52.5,49.3L52.5,49.3z"/>
</g>
</svg>
