<svg id="Layer_1" data-name="Layer 1" xmlns="http://www.w3.org/2000/svg" viewBox="0 0 512 512"><title>caption</title><path d="M336.5,168.19C336.5,75.3,261.17,0,168.25,0S0,75.3,0,168.19,75.33,336.38,168.25,336.38c3.43,0,6.84-.12,10.23-.32l.28-157.36,157.4.05C336.37,175.26,336.5,171.74,336.5,168.19ZM111,32.58A146.11,146.11,0,0,1,130.06,26c-3.9,4.55-8.09,9.78-12.33,15.69A224.38,224.38,0,0,0,105,61.56q-14.82-3.14-29.67-7.5A146.31,146.31,0,0,1,111,32.58ZM32.59,110.91A146.49,146.49,0,0,1,58,70.7q18.6,6,37.18,10.23a198,198,0,0,0-16.42,62.23q-.65,7.25-.75,14.52H21.4A146,146,0,0,1,32.59,110.91Zm0,114.56A146,146,0,0,1,21.4,178.7H78.83q3.57,37.63,21.72,75.57A416.28,416.28,0,0,0,58,265.68,146.49,146.49,0,0,1,32.59,225.47ZM111,303.8A146.31,146.31,0,0,1,75.3,282.32q17.76-5.22,35.48-8.67a345,345,0,0,0,25.78,38.29A146.59,146.59,0,0,1,111,303.8Zm46.78,1.06A341.25,341.25,0,0,1,133.08,270q12.36-1.63,24.65-2.39Zm0-58.31q-17.76,1-35.65,3.78Q103.81,214.26,100,178.7h57.74Zm0-88.87H99q.09-6.19.64-12.36a176.51,176.51,0,0,1,16.72-60.19,378.18,378.18,0,0,0,41.35,4.7Zm0-88.91q-15.27-.94-30.65-3.23c2.47-4,4.92-7.63,7.28-10.94a204.88,204.88,0,0,1,23.37-27.39Zm67.81-36.19a146.16,146.16,0,0,1,39.84,25,300.74,300.74,0,0,1-32,7.24,225.42,225.42,0,0,0-14.58-23.14c-4.25-5.91-8.43-11.14-12.33-15.69A145.47,145.47,0,0,1,225.54,32.58Zm-46.78-5.37a208.1,208.1,0,0,1,32.06,40.64q-10,1-20.15,1.35-5.94.21-11.91.21Zm0,130.47V90.44q6.35,0,12.67-.23,15.18-.55,30-2.38a175,175,0,0,1,15.41,57.22q.57,6.3.67,12.63Zm79.76,0q-.11-7.27-.76-14.52A195.41,195.41,0,0,0,242.88,84.5a320.37,320.37,0,0,0,39-9.93,146.46,146.46,0,0,1,33.24,83.11Z"/><path d="M504.09,195.65H203.45a7.93,7.93,0,0,0-7.91,7.91V504.09a7.93,7.93,0,0,0,7.91,7.91H504.09a7.93,7.93,0,0,0,7.91-7.91V203.56A7.93,7.93,0,0,0,504.09,195.65ZM297.51,410.3q17.63,0,42.7-8.81v29.75q-20.61,8.58-46,8.59-36.53,0-55.87-22.15T219,354.11q0-26.08,9.51-45.72t27.3-30.1q17.8-10.47,41.73-10.47,24.38,0,49,11.79l-11.45,28.84a188.47,188.47,0,0,0-18.89-7.78,56.48,56.48,0,0,0-18.66-3.32q-20,0-31,15t-11,41.94Q255.49,410.3,297.51,410.3Zm147,0q17.63,0,42.7-8.81v29.75q-20.61,8.58-46,8.59-36.52,0-55.87-22.15t-19.34-63.57q0-26.08,9.5-45.72t27.3-30.1q17.81-10.47,41.73-10.47,24.38,0,49,11.79L482,308.45a188.47,188.47,0,0,0-18.89-7.78,56.48,56.48,0,0,0-18.66-3.32q-20,0-31,15t-11,41.94Q402.44,410.3,444.46,410.3Z"/></svg>