<?xml version="1.0" encoding="utf-8"?>
<!-- Generator: Adobe Illustrator 22.1.0, SVG Export Plug-In . SVG Version: 6.00 Build 0)  -->
<svg version="1.1" id="Layer_1" xmlns="http://www.w3.org/2000/svg" xmlns:xlink="http://www.w3.org/1999/xlink" x="0px" y="0px"
	 viewBox="0 0 512 512" style="enable-background:new 0 0 512 512;" xml:space="preserve">
<title>character-spacing-condensed</title>
<path d="M148.4,317.7c11.2-5,22.3-14.5,33.4-28.5h1.7l9.7,31.9H228V166.9c0-27.2-7.4-47.1-22.3-59.8c-14.9-12.7-36.9-19-66-19
	c-14.1,0.1-28.2,1.8-41.9,5.1c-14.2,3.2-27.9,8.1-40.9,14.8l15.8,34.8c10.1-4.7,20.5-8.8,31.1-12.2c10.9-3.5,22.3-5.2,33.8-5.2
	c14.4,0,25,3.6,31.8,10.9c6.8,7.2,10.3,18.2,10.2,32.8v12.2l-39.6,1.2c-35.9,1.1-62.7,7.7-80.2,19.7s-26.3,29.8-26.3,53.4
	c0,22.2,6.3,39.4,19,51.6c12.7,12.1,30.3,18.2,52.8,18.2C122.8,325.3,137.2,322.7,148.4,317.7z M84.1,255.9
	c0-14.1,5.2-24.5,15.7-31.4c10.4-6.8,27.1-10.7,50.1-11.5l29.4-1.2v19.9c0,17.8-5.4,31.6-16.1,41.5S138.3,288,120.6,288
	c-12.2,0-21.3-2.8-27.4-8.4S84.1,266.1,84.1,255.9z"/>
<path d="M454.5,120.1c-16-20.7-38.3-31.1-66.9-31.1c-30.1,0-53,11.4-68.4,34.2h-2.1c0.3-3,0.7-10.1,1.2-21.3s0.8-19.6,0.8-25.3V0
	h-48.7v322.1H307l8.9-27.1h3.3c16,20.8,38.6,31.3,67.6,31.3c28.8,0,51.2-10.5,67.4-31.4s24.3-50.1,24.3-87.7
	C478.5,169.8,470.5,140.8,454.5,120.1z M415.1,266.1c-8.9,13.7-22,20.5-39.3,20.5c-20.1,0-34.5-6.2-43.4-18.7
	c-8.8-12.5-13.3-32.7-13.3-60.6V204c0.3-27,4.7-46.3,13.4-57.9c8.6-11.5,22.8-17.3,42.4-17.3c35.7,0,53.5,26,53.5,78
	C428.5,232.6,424.1,252.4,415.1,266.1L415.1,266.1z"/>
<g>
	<path d="M456.1,450.7H316.9l45.4,41.2c0,0,0,0,0,0c1.4,1.3,1.5,3.6,0.2,5l-13.1,14.1c-1.3,1.4-3.6,1.5-5,0.2L266.3,440
		c-0.1-0.1-0.2-0.1-0.2-0.2c-1.3-1.5-1.2-3.7,0.2-5l77.8-70.9c1.4-1.3,3.7-1.2,5,0.2l13.1,14.1c0,0,0,0,0,0.1c1.3,1.4,1.2,3.7-0.2,5
		l-45.5,41.2h139.6V450.7z"/>
	<path d="M55.9,423.9h139.2l-45.4-41.2c0,0,0,0,0,0c-1.4-1.3-1.5-3.6-0.2-5l13.1-14.1c1.3-1.4,3.6-1.5,5-0.2l78.1,71.3
		c0.1,0.1,0.2,0.1,0.2,0.2c1.3,1.5,1.2,3.7-0.2,5L168,510.8c-1.4,1.3-3.7,1.2-5-0.2l-13.1-14.1c0,0,0,0,0-0.1
		c-1.3-1.4-1.2-3.7,0.2-5l45.5-41.2H55.9V423.9z"/>
</g>
</svg>
