<svg id="Layer_1" data-name="Layer 1" xmlns="http://www.w3.org/2000/svg" viewBox="0 0 512 512"><title>character-spacing-condensed</title><path d="M148.4,317.7q16.8-7.5,33.4-28.5h1.7l9.7,31.9H228V166.9q0-40.8-22.3-59.8t-66-19a184.76,184.76,0,0,0-41.9,5.1A171.15,171.15,0,0,0,56.9,108l15.8,34.8a267.36,267.36,0,0,1,31.1-12.2,110.46,110.46,0,0,1,33.8-5.2c14.4,0,25,3.6,31.8,10.9s10.3,18.2,10.2,32.8v12.2L140,182.5c-35.9,1.1-62.7,7.7-80.2,19.7S33.5,232,33.5,255.6q0,33.3,19,51.6t52.8,18.2C122.8,325.3,137.2,322.7,148.4,317.7ZM84.1,255.9c0-14.1,5.2-24.5,15.7-31.4s27.1-10.7,50.1-11.5l29.4-1.2v19.9c0,17.8-5.4,31.6-16.1,41.5S138.3,288,120.6,288c-12.2,0-21.3-2.8-27.4-8.4S84.1,266.1,84.1,255.9Z"/><path d="M454.5,120.1q-24-31-66.9-31.1c-30.1,0-53,11.4-68.4,34.2h-2.1q.45-4.5,1.2-21.3c.5-11.2.8-19.6.8-25.3V0H270.4V322.1H307l8.9-27.1h3.3c16,20.8,38.6,31.3,67.6,31.3,28.8,0,51.2-10.5,67.4-31.4s24.3-50.1,24.3-87.7Q478.5,151.1,454.5,120.1Zm-39.4,146c-8.9,13.7-22,20.5-39.3,20.5-20.1,0-34.5-6.2-43.4-18.7s-13.3-32.7-13.3-60.6V204c.3-27,4.7-46.3,13.4-57.9s22.8-17.3,42.4-17.3q53.55,0,53.5,78,.15,38.7-13.3,59.3Z"/><path d="M456.1,450.7H316.9l45.4,41.2h0a3.6,3.6,0,0,1,.2,5L349.4,511a3.6,3.6,0,0,1-5,.2L266.3,440c-.1-.1-.2-.1-.2-.2a3.59,3.59,0,0,1,.2-5l77.8-70.9a3.6,3.6,0,0,1,5,.2l13.1,14.1v.1a3.6,3.6,0,0,1-.2,5l-45.5,41.2H456.1v26.2Z"/><path d="M55.9,423.9H195.1l-45.4-41.2h0a3.6,3.6,0,0,1-.2-5l13.1-14.1a3.6,3.6,0,0,1,5-.2l78.1,71.3c.1.1.2.1.2.2a3.59,3.59,0,0,1-.2,5L168,510.8a3.6,3.6,0,0,1-5-.2l-13.1-14.1v-.1a3.6,3.6,0,0,1,.2-5l45.5-41.2H55.9Z"/></svg>
