<svg id="Layer_1" data-name="Layer 1" xmlns="http://www.w3.org/2000/svg" viewBox="0 0 512 512"><title>crossout-diag-dotted-line</title><path d="M486.52,510.53l-17.77-17.77a5.08,5.08,0,0,1,0-7.16l16.88-17.06a5,5,0,0,1,7.13,0l17.77,17.76a5.07,5.07,0,0,1,0,7.16l-16.88,17.06A5,5,0,0,1,486.52,510.53ZM447.58,471.6l-17.77-17.76a5.09,5.09,0,0,1,0-7.16l16.88-17.06a5,5,0,0,1,7.13,0l17.78,17.76a5.08,5.08,0,0,1,0,7.16l-16.88,17.06A5,5,0,0,1,447.58,471.6Zm-38.94-38.92-17.77-17.76a5.09,5.09,0,0,1,0-7.16l16.89-17.06a5,5,0,0,1,7.12,0l17.78,17.77a5.09,5.09,0,0,1,0,7.16l-16.89,17.06A5,5,0,0,1,408.64,432.68Zm-38.93-38.92L351.93,376a5.1,5.1,0,0,1,0-7.17l16.89-17.05a5,5,0,0,1,7.13,0l17.77,17.77a5.09,5.09,0,0,1,0,7.16l-16.89,17.05A5,5,0,0,1,369.71,393.76Zm-38.94-38.92L313,337.08a5.1,5.1,0,0,1,0-7.17l16.89-17.05a5,5,0,0,1,7.13,0l17.77,17.77a5.09,5.09,0,0,1,0,7.16L337.9,354.82A5,5,0,0,1,330.77,354.84Zm-38.94-38.92-17.78-17.76a5.09,5.09,0,0,1,0-7.17l16.88-17.05a5,5,0,0,1,7.13,0l17.77,17.77a5.08,5.08,0,0,1,0,7.16L299,315.9A5,5,0,0,1,291.83,315.92ZM252.89,277l-17.77-17.77a5.07,5.07,0,0,1,0-7.16L252,235a5,5,0,0,1,7.13,0l17.77,17.77a5.07,5.07,0,0,1,0,7.16L260,277A5,5,0,0,1,252.89,277ZM214,238.08l-17.77-17.77a5.08,5.08,0,0,1,0-7.16L213,196.1a5,5,0,0,1,7.13,0L238,213.84a5.09,5.09,0,0,1,0,7.17l-16.88,17.05A5,5,0,0,1,214,238.08ZM175,199.16l-17.77-17.77a5.09,5.09,0,0,1,0-7.16l16.88-17a5,5,0,0,1,7.13,0L199,174.92a5.1,5.1,0,0,1,0,7.17l-16.89,17A5,5,0,0,1,175,199.16Zm-38.94-38.92L118.3,142.47a5.09,5.09,0,0,1,0-7.16l16.89-17a5,5,0,0,1,7.12,0L160.07,136a5.1,5.1,0,0,1,0,7.17L143.2,160.22A5,5,0,0,1,136.07,160.24ZM97.14,121.32,79.36,103.55a5.09,5.09,0,0,1,0-7.16L96.23,79.33a5,5,0,0,1,7.13,0l17.77,17.76a5.09,5.09,0,0,1,0,7.16L104.26,121.3A5,5,0,0,1,97.14,121.32ZM58.2,82.4,40.42,64.63a5.08,5.08,0,0,1,0-7.16L57.29,40.41a5,5,0,0,1,7.13,0L82.19,58.16a5.09,5.09,0,0,1,0,7.16L65.33,82.38A5,5,0,0,1,58.2,82.4ZM19.26,43.47,1.49,25.71a5.07,5.07,0,0,1,0-7.16L18.35,1.49a5,5,0,0,1,7.13,0L43.25,19.24a5.08,5.08,0,0,1,0,7.16L26.39,43.46A5,5,0,0,1,19.26,43.47Z"/></svg>