<?xml version="1.0" encoding="utf-8"?>
<!-- Generator: Adobe Illustrator 21.1.0, SVG Export Plug-In . SVG Version: 6.00 Build 0)  -->
<svg version="1.1" id="Layer_1" xmlns="http://www.w3.org/2000/svg" xmlns:xlink="http://www.w3.org/1999/xlink" x="0px" y="0px"
	 viewBox="0 0 64 64" style="enable-background:new 0 0 64 64;" xml:space="preserve">
<style type="text/css">
	.st0{fill:none;}
</style>
<g id="side_scroll_3_">
	<polygon points="62.3,64 60.6,62.3 62.3,60.6 64,62.3 	"/>
	<path d="M57.1,58.8l-3.5-3.5l1.7-1.7l3.5,3.5L57.1,58.8z M50.2,51.9l-3.5-3.5l1.7-1.7l3.5,3.5L50.2,51.9z M43.3,45l-3.5-3.5
		l1.7-1.7l3.5,3.5L43.3,45z M36.3,38l-3.5-3.5l1.7-1.7l3.5,3.5L36.3,38z M29.4,31.1l-3.5-3.5l1.7-1.7l3.5,3.5L29.4,31.1z M22.5,24.2
		L19,20.7l1.7-1.7l3.5,3.5L22.5,24.2z M15.5,17.2l-3.5-3.5l1.7-1.7l3.5,3.5L15.5,17.2z M8.6,10.3L5.2,6.8l1.7-1.7l3.5,3.5L8.6,10.3z
		"/>
	<polygon points="1.7,3.4 0,1.7 1.7,0 3.4,1.7 	"/>
</g>
</svg>
