<?xml version="1.0" encoding="utf-8"?>
<!-- Generator: Adobe Illustrator 21.1.0, SVG Export Plug-In . SVG Version: 6.00 Build 0)  -->
<svg version="1.1" id="Layer_1" xmlns="http://www.w3.org/2000/svg" xmlns:xlink="http://www.w3.org/1999/xlink" x="0px" y="0px"
	 viewBox="0 0 64 64" style="enable-background:new 0 0 64 64;" xml:space="preserve">
<style type="text/css">
	.st0{fill:none;}
</style>
<path d="M37.1,24c-2.4,8-4.4,15.8-6.8,23.4c-1,3.9-2.6,7.6-4.8,11c-2.5,3.5-6.4,5.6-10.6,5.7c-3.3,0-6.6-1.6-6.6-5
	c0.2-2.1,1.9-3.8,4-4c0.8,0,1.5,0.4,1.8,1c1.6,2.9,3.2,4.6,4,4.6s1.3-1,2.5-5.2C23.3,45.1,26.1,34.7,29,24h-6.1
	c-0.5-1.3-0.1-2.7,1-3.6H30c1.1-3.8,2.6-7.5,4.5-11c2.6-5.5,8-9.1,14-9.4c4.9,0,6.9,2.3,6.9,5.3c0,2.3-1.7,4.4-4,4.8
	c-1,0-1.6-0.8-1.9-1.9c-1.1-4-2.5-5.4-3.4-5.4S44,4.4,42.6,7.6c-1.8,4.1-3.2,8.4-4.3,12.8h7.4c0.5,1.2,0,2.6-1,3.4L37.1,24z"/>
</svg>
