<svg id="Layer_1" data-name="Layer 1" xmlns="http://www.w3.org/2000/svg" viewBox="0 0 512 512"><title>font-style</title><path d="M297.92,192c-19.2,64-35.2,126.08-54.4,186.88a330,330,0,0,1-38.08,87.68A107.85,107.85,0,0,1,120.32,512c-26.56,0-52.48-12.48-52.48-40a36.16,36.16,0,0,1,32-32,15.67,15.67,0,0,1,14.72,8.32c13.12,23.36,25.28,36.8,32,36.8s10.24-7.68,19.84-41.6Q197.77,320,233.28,192h-49A24,24,0,0,1,192,163.52h49A451.63,451.63,0,0,1,276.8,75.2,129.92,129.92,0,0,1,389.12,0c39,0,55,18.56,55,42.56a39.37,39.37,0,0,1-32,38.4c-8.32,0-12.48-6.08-15-15-8.64-32-20.16-43.2-26.88-43.2S353,35.2,341.44,61.12a660.37,660.37,0,0,0-34.24,102.4h59.2a23,23,0,0,1-8.32,26.88Z"/></svg>