<svg id="Layer_1" data-name="Layer 1" xmlns="http://www.w3.org/2000/svg" viewBox="0 0 512 512"><title>highlighter-color</title><path d="M83.12,458.6H119.3a5,5,0,0,0,4.24-2.32l20.81-32.52a5,5,0,0,1,7-1.53L166,431.61a5,5,0,0,0,6.95-1.52l25.46-39.8a5,5,0,0,1,6.95-1.53l12.8,8.18a5,5,0,0,0,6.95-1.53L426.31,81a5,5,0,0,0-1.53-7L310.21.79a5.05,5.05,0,0,0-7,1.53L102.05,316.78a5,5,0,0,0,1.53,7l12.79,8.18a5,5,0,0,1,1.53,6.94l-25.46,39.8A5,5,0,0,0,94,385.59L108.66,395a5,5,0,0,1,1.53,6.95L78.88,450.86A5,5,0,0,0,83.12,458.6Z"/><rect x="69" y="479.81" width="374" height="32.19" rx="5.03" ry="5.03"/></svg>