<?xml version="1.0" encoding="utf-8"?>
<!-- Generator: Adobe Illustrator 21.1.0, SVG Export Plug-In . SVG Version: 6.00 Build 0)  -->
<svg version="1.1" id="Layer_1" xmlns="http://www.w3.org/2000/svg" xmlns:xlink="http://www.w3.org/1999/xlink" x="0px" y="0px"
	 viewBox="0 0 64 64" style="enable-background:new 0 0 64 64;" xml:space="preserve">
<style type="text/css">
	.st0{fill:none;}
</style>
<g id="text_to_speach_settings_1_">
	<path d="M38.6,7.7l20,18.8l1.6,13.7L22.5,54.9l1.2-14.1l14.6-5.5L23,38.9l-13.7-20l12.8,22l-2,13.3L4,27.9l3.2-12.3l29.2-8.6
		L38.6,7.7z M37.2,3.4L6.7,11.6L3.5,14L0,26.7l0.6,2.6l17.4,28.1l6.1,1.1l38.8-14.8L64,40l-2.2-13.7l-1.3-2.6l-19-19.6L37.2,3.4z"/>
	<g>
		<path d="M29.2,24.5L27.8,17l8.3,5.3l-6.7,2.2 M27.3,14.2l-2.4,0.6L28,31.5l2.3-0.6l-0.8-4l8.5-3.2l4.4,2.9l2.4-0.8L27.3,14.2"/>
	</g>
</g>
</svg>
