<svg id="Layer_1" data-name="Layer 1" xmlns="http://www.w3.org/2000/svg" viewBox="0 0 512 512"><title>keyboard-shortcuts</title><path d="M507,51.5H5a5,5,0,0,0-5,5v399a5,5,0,0,0,5,5H507a5,5,0,0,0,5-5V56.5A5,5,0,0,0,507,51.5ZM280.44,117.17a5,5,0,0,1,5-5h55a5,5,0,0,1,5,5v55a5,5,0,0,1-5,5h-55a5,5,0,0,1-5-5ZM288.5,230.5v55a5,5,0,0,1-5,5h-55a5,5,0,0,1-5-5v-55a5,5,0,0,1,5-5h55A5,5,0,0,1,288.5,230.5ZM166.56,117.17a5,5,0,0,1,5-5h55a5,5,0,0,1,5,5v55a5,5,0,0,1-5,5h-55a5,5,0,0,1-5-5Zm-113.89,55v-55a5,5,0,0,1,5-5h55a5,5,0,0,1,5,5v55a5,5,0,0,1-5,5h-55A5,5,0,0,1,52.67,172.17ZM109.61,285.5v-55a5,5,0,0,1,5-5h55a5,5,0,0,1,5,5v55a5,5,0,0,1-5,5h-55A5,5,0,0,1,109.61,285.5ZM399.78,398.82a5,5,0,0,1-5,5H117.22a5,5,0,0,1-5-5v-55a5,5,0,0,1,5-5H394.78a5,5,0,0,1,5,5Zm2.61-113.32a5,5,0,0,1-5,5h-55a5,5,0,0,1-5-5v-55a5,5,0,0,1,5-5h55a5,5,0,0,1,5,5Zm56.94-113.33a5,5,0,0,1-5,5h-55a5,5,0,0,1-5-5v-55a5,5,0,0,1,5-5h55a5,5,0,0,1,5,5Z"/></svg>