<svg id="Layer_1" data-name="Layer 1" xmlns="http://www.w3.org/2000/svg" viewBox="0 0 512 512"><title>links</title><path d="M64.91,0a64.91,64.91,0,1,0,64.9,64.91A64.91,64.91,0,0,0,64.91,0Zm0,98.16A33.26,33.26,0,1,1,98.16,64.91,33.3,33.3,0,0,1,64.91,98.16Z"/><path d="M64.91,191.09A64.91,64.91,0,1,0,129.81,256,64.91,64.91,0,0,0,64.91,191.09Zm0,98.16A33.25,33.25,0,1,1,98.16,256,33.29,33.29,0,0,1,64.91,289.25Z"/><path d="M256,129.81a64.91,64.91,0,1,0-64.91-64.9A64.91,64.91,0,0,0,256,129.81Zm0-98.16a33.26,33.26,0,1,1-33.25,33.26A33.29,33.29,0,0,1,256,31.65Z"/><path d="M447.09,129.81a64.91,64.91,0,1,0-64.9-64.9A64.91,64.91,0,0,0,447.09,129.81Zm0-98.16a33.26,33.26,0,1,1-33.25,33.26A33.3,33.3,0,0,1,447.09,31.65Z"/><path d="M447.09,191.09A64.91,64.91,0,1,0,512,256,64.91,64.91,0,0,0,447.09,191.09Zm0,98.16A33.25,33.25,0,1,1,480.35,256,33.29,33.29,0,0,1,447.09,289.25Z"/><path d="M64.91,382.19a64.91,64.91,0,1,0,64.9,64.9A64.91,64.91,0,0,0,64.91,382.19Zm0,98.16a33.26,33.26,0,1,1,33.25-33.26A33.3,33.3,0,0,1,64.91,480.35Z"/><path d="M256,382.19a64.91,64.91,0,1,0,64.91,64.9A64.91,64.91,0,0,0,256,382.19Zm0,98.16a33.26,33.26,0,1,1,33.25-33.26A33.29,33.29,0,0,1,256,480.35Z"/><path d="M447.09,382.19A64.91,64.91,0,1,0,512,447.09,64.9,64.9,0,0,0,447.09,382.19Zm0,98.16a33.26,33.26,0,1,1,33.26-33.26A33.3,33.3,0,0,1,447.09,480.35Z"/><circle cx="256" cy="256" r="95"/></svg>