<svg id="Layer_1" data-name="Layer 1" xmlns="http://www.w3.org/2000/svg" viewBox="0 0 512 512"><title>page-width-more</title><path d="M507,52H5a5,5,0,0,0-5,5V455a5,5,0,0,0,5,5H507a5,5,0,0,0,5-5V57A5,5,0,0,0,507,52ZM480,428H32V84H480Z"/><rect x="162.47" y="123.02" width="188" height="265.96" rx="5" ry="5"/><rect x="67" y="121.67" width="65" height="72.67" rx="5" ry="5"/><rect x="67" y="230.08" width="65" height="158.9" rx="5" ry="5"/><rect x="380" y="123.02" width="65" height="265.96" rx="5" ry="5"/></svg>