<svg id="Layer_1" data-name="Layer 1" xmlns="http://www.w3.org/2000/svg" viewBox="0 0 512 512"><title>preferences</title><path d="M507,203.45H425.25A179.31,179.31,0,0,0,406,158.7l51.52-51.52a5,5,0,0,0,0-7.07L396.34,38.93a5,5,0,0,0-7.07,0L335.94,92.25A178.58,178.58,0,0,0,299.5,77.71V5a5,5,0,0,0-5-5H208a5,5,0,0,0-5,5V77.71a179.36,179.36,0,0,0-34.58,13.55L116.05,38.93a5,5,0,0,0-7.07,0L47.8,100.11a5,5,0,0,0,0,7.07l49.75,49.76a179.52,179.52,0,0,0-20.32,46.51H5a5,5,0,0,0-5,5V295a5,5,0,0,0,5,5H77.23a179.74,179.74,0,0,0,21.31,48.1L47.8,398.83a5,5,0,0,0,0,7.07L109,467.08a5,5,0,0,0,7.07,0l54.05-54A179.47,179.47,0,0,0,203,425.73V507a5,5,0,0,0,5,5H294.5a5,5,0,0,0,5-5V425.73a178.91,178.91,0,0,0,34.76-13.66l55,55a5,5,0,0,0,7.07,0l61.18-61.18a5,5,0,0,0,0-7.07L405,346.33A179.87,179.87,0,0,0,425.25,300H507a5,5,0,0,0,5-5V208.45A5,5,0,0,0,507,203.45ZM356.27,356.75a148.53,148.53,0,1,1,43.51-105A147.53,147.53,0,0,1,356.27,356.75Z"/><path d="M262.07,160.86a5,5,0,0,0-5.34,5v91.21H165.87a5,5,0,0,0-5,5.36,95.25,95.25,0,0,0,96.72,88.7c51.07-.88,92.69-42.55,93.53-93.62A95.24,95.24,0,0,0,262.07,160.86Z"/></svg>