<?xml version="1.0" encoding="utf-8"?>
<!-- Generator: Adobe Illustrator 21.1.0, SVG Export Plug-In . SVG Version: 6.00 Build 0)  -->
<svg version="1.1" id="Layer_1" xmlns="http://www.w3.org/2000/svg" xmlns:xlink="http://www.w3.org/1999/xlink" x="0px" y="0px"
	 viewBox="0 0 64 64" style="enable-background:new 0 0 64 64;" xml:space="preserve">
<style type="text/css">
	.st0{fill:none;}
</style>
<g id="text_to_speach_settings_2_">
	<path d="M64,38.4V25.6h-9.4c-0.5-1.8-1.2-3.4-2.1-5l6.7-6.7l-9-9l-6.7,6.7c-1.6-0.9-3.3-1.6-5-2.1V0H25.6v9.4
		c-1.8,0.5-3.4,1.2-5,2.1l-6.6-6.7l-9.1,9.1l6.7,6.6c-0.9,1.6-1.6,3.3-2.1,5H0v12.8h9.4c0.5,1.8,1.2,3.4,2.1,5l-6.7,6.7l9,9l6.7-6.7
		c1.6,0.9,3.3,1.6,5,2.1V64h12.8v-9.4c1.8-0.5,3.4-1.2,5-2.1l6.7,6.7l9-9l-6.7-6.7c0.9-1.6,1.6-3.3,2.1-5H64z M51.2,32
		c0,10.6-8.6,19.2-19.2,19.2S12.8,42.6,12.8,32c0-10.6,8.6-19.2,19.2-19.2l0,0C42.6,12.8,51.2,21.4,51.2,32z"/>
	<path d="M32,21.3V32H21.3c0,5.9,4.8,10.7,10.7,10.7S42.7,37.9,42.7,32S37.9,21.3,32,21.3L32,21.3z"/>
</g>
</svg>
