<?xml version="1.0" encoding="utf-8"?>
<!-- Generator: Adobe Illustrator 21.1.0, SVG Export Plug-In . SVG Version: 6.00 Build 0)  -->
<svg version="1.1" id="Layer_1" xmlns="http://www.w3.org/2000/svg" xmlns:xlink="http://www.w3.org/1999/xlink" x="0px" y="0px"
	 viewBox="0 0 64 64" style="enable-background:new 0 0 64 64;" xml:space="preserve">
<style type="text/css">
	.st0{fill:none;}
</style>
<rect x="60.7" y="20.2" width="3.4" height="3.4"/>
<rect x="60.7" y="26.9" width="3.4" height="3.4"/>
<rect x="60.7" y="33.7" width="3.4" height="3.4"/>
<rect x="60.7" y="40.4" width="3.4" height="3.4"/>
<rect x="53.9" y="20.2" width="3.4" height="3.4"/>
<rect x="53.9" y="26.9" width="3.4" height="3.4"/>
<rect x="53.9" y="33.7" width="3.4" height="3.4"/>
<rect x="53.9" y="40.4" width="3.4" height="3.4"/>
<rect x="47.2" y="20.2" width="3.4" height="3.4"/>
<rect x="47.2" y="26.9" width="3.4" height="3.4"/>
<rect x="47.2" y="33.7" width="3.4" height="3.4"/>
<rect x="47.2" y="40.4" width="3.4" height="3.4"/>
<rect x="40.4" y="20.2" width="3.4" height="3.4"/>
<rect x="40.4" y="26.9" width="3.4" height="3.4"/>
<rect x="40.4" y="33.7" width="3.4" height="3.4"/>
<rect x="40.4" y="40.4" width="3.4" height="3.4"/>
<rect x="33.7" y="20.2" width="3.4" height="3.4"/>
<rect x="33.7" y="26.9" width="3.4" height="3.4"/>
<rect x="33.7" y="33.7" width="3.4" height="3.4"/>
<rect x="33.7" y="40.4" width="3.4" height="3.4"/>
<rect x="27" y="20.2" width="3.4" height="3.4"/>
<rect x="27" y="26.9" width="3.4" height="3.4"/>
<rect x="27" y="33.7" width="3.4" height="3.4"/>
<rect x="27" y="40.4" width="3.4" height="3.4"/>
<rect x="20.2" y="20.2" width="3.4" height="3.4"/>
<rect x="20.2" y="26.9" width="3.4" height="3.4"/>
<rect x="20.2" y="33.7" width="3.4" height="3.4"/>
<rect x="20.2" y="40.4" width="3.4" height="3.4"/>
<rect x="13.5" y="20.2" width="3.4" height="3.4"/>
<rect x="13.5" y="26.9" width="3.4" height="3.4"/>
<rect x="13.5" y="33.7" width="3.4" height="3.4"/>
<rect x="13.5" y="40.4" width="3.4" height="3.4"/>
<rect x="6.8" y="20.2" width="3.4" height="3.4"/>
<rect x="6.8" y="26.9" width="3.4" height="3.4"/>
<rect x="6.8" y="33.7" width="3.4" height="3.4"/>
<rect x="6.8" y="40.4" width="3.4" height="3.4"/>
<rect x="0" y="20.2" width="3.4" height="3.4"/>
<rect x="0" y="26.9" width="3.4" height="3.4"/>
<rect x="0" y="33.7" width="3.4" height="3.4"/>
<rect x="0" y="40.4" width="3.4" height="3.4"/>
</svg>
