<?xml version="1.0" encoding="utf-8"?>
<!-- Generator: Adobe Illustrator 21.1.0, SVG Export Plug-In . SVG Version: 6.00 Build 0)  -->
<svg version="1.1" id="Layer_1" xmlns="http://www.w3.org/2000/svg" xmlns:xlink="http://www.w3.org/1999/xlink" x="0px" y="0px"
	 viewBox="0 0 64 64" style="enable-background:new 0 0 64 64;" xml:space="preserve">
<style type="text/css">
	.st0{fill:none;}
</style>
<g id="text_to_speach_settings_3_">
	<path d="M61.2,53.8L49.5,42.1c-0.7-0.7-1.5-1.3-2.3-1.8c8-11.8,5-27.8-6.8-35.9s-27.8-5-35.9,6.8s-5,27.8,6.8,35.9
		c8.8,6,20.3,6,29.1,0c0.5,0.9,1.1,1.6,1.8,2.3l11.7,12c2.2,2.7,6.1,3.3,8.9,1.3C64.7,59.8,64,55.9,61.2,53.8z M40.8,40.5L40.8,40.5
		L40.8,40.5c-8.1,8.1-21.3,8.1-29.4,0l-1.1-0.8l1.8-5.3h13l2.8,7.4h3.7L20.5,12.3h-3.7l-9,24.1c-5.8-9.9-2.5-22.8,7.4-28.6
		S38,5.3,43.8,15.2C48.6,23.3,47.3,33.7,40.8,40.5L40.8,40.5z M13.6,32.1l5.1-13.6l5.1,13.6H13.6z"/>
</g>
</svg>
