<svg id="Layer_1" data-name="Layer 1" xmlns="http://www.w3.org/2000/svg" viewBox="0 0 512 512"><title>syllabification</title><path d="M172.16,297.45q32,0,32-42.55t-31.85-42.64q-16,0-24.08,10.74t-8.12,31.9q0,21.15,8,31.85T172.16,297.45Z"/><path d="M0,5V507a5,5,0,0,0,5,5H236V0H5A5,5,0,0,0,0,5ZM127.66,206.6Q143.25,190,172.33,190t44.49,16.74q15.42,16.76,15.41,48.17t-15.54,48.16q-15.52,16.83-44.53,16.83t-44.54-16.83q-15.54-16.83-15.54-48.33T127.66,206.6Zm-72,37.34L82,192h28.83L69,269.05v49.12H42.36V269.92L.5,192h29Z"/><path d="M450.33,212.26q-16,0-24.08,10.74t-8.12,31.9q0,21.15,8,31.85t24,10.7q32,0,32-42.55T450.33,212.26Z"/><path d="M507,0H276V512H507a5,5,0,0,0,5-5V5A5,5,0,0,0,507,0ZM347,269.05v49.12H320.36V269.92L278.5,192h29l26.15,52L360,192h28.83Zm147.74,34q-15.53,16.83-44.53,16.83t-44.54-16.83q-15.54-16.83-15.54-48.33t15.58-48.13Q421.25,190,450.33,190t44.49,16.74q15.42,16.76,15.41,48.17T494.69,303.06Z"/></svg>