<?xml version="1.0" encoding="utf-8"?>
<!-- Generator: Adobe Illustrator 21.1.0, SVG Export Plug-In . SVG Version: 6.00 Build 0)  -->
<svg version="1.1" id="Layer_1" xmlns="http://www.w3.org/2000/svg" xmlns:xlink="http://www.w3.org/1999/xlink" x="0px" y="0px"
	 viewBox="0 0 64 64" style="enable-background:new 0 0 64 64;" xml:space="preserve">
<style type="text/css">
	.st0{fill:none;}
</style>
<path d="M32,11.9c13.4,0,25.1,7,25.1,15c0,7.2-13.3,15.3-20,15.3c-5.9,0-16-1.3-16-1.3h-0.5c-8-2.6-13.7-8.2-13.7-13.8
	c0-8,11.7-15,25.1-15 M32,5.1C14.4,5.1,0,14.9,0,27c0,8.6,7.7,16.6,18.6,20.2l25.2,10.9l-7.2-9.8C52,47,64,38,64,27
	C64,15,49.7,5.1,32,5.1L32,5.1z"/>
</svg>
