<?xml version="1.0" encoding="utf-8"?>
<!-- Generator: Adobe Illustrator 21.1.0, SVG Export Plug-In . SVG Version: 6.00 Build 0)  -->
<svg version="1.1" id="Layer_1" xmlns="http://www.w3.org/2000/svg" xmlns:xlink="http://www.w3.org/1999/xlink" x="0px" y="0px"
	 viewBox="0 0 64 64" style="enable-background:new 0 0 64 64;" xml:space="preserve">
<style type="text/css">
	.st0{fill:none;}
</style>
<path d="M32,6.1C14.4,6.1,0,15.9,0,28c0,8.6,7.7,16.6,18.6,20.2l25.2,10.9l-7.2-9.8C52,47.9,64,39,64,28C64,16,49.7,6.1,32,6.1z
	 M13.7,29.6c0-2.5,2-4.6,4.6-4.6s4.6,2,4.6,4.6s-2,4.6-4.6,4.6l0,0C15.8,34.1,13.7,32.1,13.7,29.6z M27.4,29.6c0-2.5,2-4.6,4.6-4.6
	s4.6,2,4.6,4.6s-2,4.6-4.6,4.6l0,0C29.5,34.1,27.4,32.1,27.4,29.6z M41.1,29.6c0-2.5,2-4.6,4.6-4.6c2.5,0,4.6,2,4.6,4.6
	s-2,4.6-4.6,4.6C43.1,34.1,41.1,32.1,41.1,29.6C41.1,29.6,41.1,29.6,41.1,29.6z"/>
</svg>
