<svg id="Layer_1" data-name="Layer 1" xmlns="http://www.w3.org/2000/svg" viewBox="0 0 512 512"><title>word-space-close</title><path d="M37.58,5V507a5,5,0,0,0,5,5h185V0h-185A5,5,0,0,0,37.58,5Zm67.28,179.78H212.43v25.14H173.75v117.3H143.54V209.92H104.86Zm-52.12,0h30.2V327.22H52.74Z"/><path d="M469.42,0h-175V512h175a5,5,0,0,0,5-5V5A5,5,0,0,0,469.42,0ZM339.55,327.27h-30.2V184.83h30.2Zm106.05-9.16Q431.73,329.23,407,329.22q-22.8,0-40.33-8.58V292.59a167.47,167.47,0,0,0,24.4,9.06,72.42,72.42,0,0,0,18.27,2.63q9.94,0,15.25-3.8t5.31-11.3a12.48,12.48,0,0,0-2.34-7.46,26.23,26.23,0,0,0-6.87-6.28q-4.53-3-18.46-9.65-13.06-6.14-19.59-11.79a44.21,44.21,0,0,1-10.42-13.15,37.52,37.52,0,0,1-3.9-17.54q0-18.9,12.81-29.71t35.42-10.82a83.75,83.75,0,0,1,21.19,2.63,146.2,146.2,0,0,1,21.1,7.41l-9.75,23.48a141.64,141.64,0,0,0-18.85-6.53,60.91,60.91,0,0,0-14.66-1.85q-8.58,0-13.16,4a13.2,13.2,0,0,0-4.58,10.43,12.84,12.84,0,0,0,1.86,7,20.1,20.1,0,0,0,5.89,5.75q4,2.77,19.14,10,20,9.56,27.38,19.14t7.41,23.53Q459.49,307,445.6,318.11Z"/></svg>