<svg id="Layer_1" data-name="Layer 1" xmlns="http://www.w3.org/2000/svg" viewBox="0 0 512 512"><title>Artboard 1 copy</title><path d="M-1,430.93H183.05V258.78H-1v30H153.05V400.93H-1Z"/><path d="M500.6,430.94H328.44V258.78H500.6Zm-142.16-30H470.6V288.78H358.44Z"/><path d="M379.57,57.88a3.55,3.55,0,0,0-5,.2L361.46,72.16a3.57,3.57,0,0,0,.18,5l0,0,45.42,41.23H90.47l45.46-41.23a3.56,3.56,0,0,0,.25-5l0,0L123,58.08a3.55,3.55,0,0,0-5-.2L40.31,128.79a3.56,3.56,0,0,0-.23,5c.07.08.15.15.23.23l78.12,71.34a3.57,3.57,0,0,0,5-.2l13.11-14.09a3.56,3.56,0,0,0-.18-5l0,0L90.92,144.81H407.53L362.07,186a3.54,3.54,0,0,0-.25,5l0,0L375,205.19a3.57,3.57,0,0,0,5,.2l77.71-70.91a3.56,3.56,0,0,0,.23-5,2.5,2.5,0,0,0-.23-.23Z"/></svg>