<svg id="Layer_1" data-name="Layer 1" xmlns="http://www.w3.org/2000/svg" viewBox="0 0 512 512"><title>word-space</title><path d="M313.07,57.88a3.55,3.55,0,0,0-5,.2L295,72.16a3.57,3.57,0,0,0,.18,5l0,0,45.42,41.23H171l45.46-41.23a3.56,3.56,0,0,0,.25-5l0,0L203.56,58.08a3.55,3.55,0,0,0-5-.2l-77.71,70.91a3.56,3.56,0,0,0-.23,5c.07.08.15.15.23.23L199,205.39a3.57,3.57,0,0,0,5-.2l13.11-14.09a3.56,3.56,0,0,0-.18-5l0,0-45.42-41.23H341L295.54,186a3.54,3.54,0,0,0-.25,5l0,0,13.11,14.09a3.57,3.57,0,0,0,5,.2l77.71-70.91a3.56,3.56,0,0,0,.23-5,2.5,2.5,0,0,0-.23-.23Z"/><path d="M243.63,430.94H8.25V258.78H243.63Zm-205.38-30H213.63V288.78H38.25Z"/><path d="M442.1,430.94H270V258.78H442.1ZM300,400.94H412.1V288.78H300Z"/></svg>
