<svg id="Layer_1" data-name="Layer 1" xmlns="http://www.w3.org/2000/svg" viewBox="0 0 512 512"><title>word-space-expanded</title><path d="M0,5V507a5,5,0,0,0,5,5H190V0H5A5,5,0,0,0,0,5ZM67.28,184.78H174.84v25.14H136.16v117.3H106V209.92H67.28Zm-52.12,0h30.2V327.22H15.16Z"/><path d="M507,0H332V512H507a5,5,0,0,0,5-5V5A5,5,0,0,0,507,0ZM377.13,327.27h-30.2V184.83h30.2Zm106.06-9.16q-13.89,11.11-38.63,11.11-22.8,0-40.34-8.58V292.59a167.9,167.9,0,0,0,24.4,9.06,72.42,72.42,0,0,0,18.27,2.63q9.94,0,15.25-3.8t5.31-11.3a12.48,12.48,0,0,0-2.34-7.46,26.23,26.23,0,0,0-6.87-6.28q-4.53-3-18.46-9.65-13-6.14-19.58-11.79a44.25,44.25,0,0,1-10.43-13.15,37.52,37.52,0,0,1-3.89-17.54q0-18.9,12.81-29.71t35.41-10.82a83.75,83.75,0,0,1,21.19,2.63,145.36,145.36,0,0,1,21.1,7.41l-9.74,23.48a141.7,141.7,0,0,0-18.86-6.53,60.84,60.84,0,0,0-14.66-1.85q-8.58,0-13.15,4a13.17,13.17,0,0,0-4.58,10.43,12.83,12.83,0,0,0,1.85,7,20.23,20.23,0,0,0,5.89,5.75q4,2.77,19.15,10,20,9.56,27.38,19.14t7.4,23.53Q497.07,307,483.19,318.11Z"/></svg>