<svg id="Layer_1" data-name="Layer 1" xmlns="http://www.w3.org/2000/svg" viewBox="0 0 512 512"><title>text-to-speech-reading-language</title><path d="M215.66,303.8q15.63-2.42,31.15-3.31v-59.3H196.36Q199.68,272.2,215.66,303.8Z"/><path d="M196.07,212q-.48,5.38-.55,10.8h51.29v-59.3a329.17,329.17,0,0,1-36.13-4.11A154.61,154.61,0,0,0,196.07,212Z"/><path d="M226.39,132.72c-2.06,2.89-4.2,6.09-6.36,9.56q13.44,2,26.78,2.82V108.78A179.82,179.82,0,0,0,226.39,132.72Z"/><path d="M312.88,141.68a262.55,262.55,0,0,0,28-6.33,128.32,128.32,0,0,0-51.5-27.61c3.4,4,7.06,8.55,10.77,13.71A195.17,195.17,0,0,1,312.88,141.68Z"/><path d="M246.81,351.45V318.9q-10.73.66-21.53,2.08A297.77,297.77,0,0,0,246.81,351.45Z"/><path d="M174.79,331.75a127.78,127.78,0,0,0,31.15,18.77,126.2,126.2,0,0,0,22.37,7.12,303.34,303.34,0,0,1-22.52-33.47Q190.33,327.19,174.79,331.75Z"/><path d="M177.79,210.12a173.13,173.13,0,0,1,14.34-54.39q-16.23-3.66-32.48-8.93a128,128,0,0,0-31.95,76h49.43Q177.22,216.47,177.79,210.12Z"/><path d="M211.86,121.45c3.71-5.16,7.37-9.73,10.77-13.71a128.29,128.29,0,0,0-47.84,24.51q13,3.81,25.92,6.55A196.82,196.82,0,0,1,211.86,121.45Z"/><path d="M177.88,241.19H127.7a128.05,128.05,0,0,0,32,76,365.41,365.41,0,0,1,37.2-10Q181,274.14,177.88,241.19Z"/><path d="M283.69,357.64a126.2,126.2,0,0,0,22.37-7.12,127.91,127.91,0,0,0,34.81-21.87,266.76,266.76,0,0,0-33.14-7.16A299.23,299.23,0,0,1,283.69,357.64Z"/><path d="M256,56C114.62,56,0,135.73,0,234.09c0,57.83,39.62,109.2,101,141.74V451a5,5,0,0,0,8.55,3.51l53.94-54.32a355.9,355.9,0,0,0,92.51,12c141.38,0,256-79.74,256-178.1S397.38,56,256,56Zm0,323A147,147,0,1,1,403,232,147,147,0,0,1,256,379Z"/><path d="M316.52,304.3a282,282,0,0,1,38.74,9.52,128.11,128.11,0,0,0,29-72.63H334.12Q331.14,272.63,316.52,304.3Z"/><path d="M321.21,158.86a170.94,170.94,0,0,1,13,51.26q.57,6.34.66,12.69H384.3a128.11,128.11,0,0,0-29-72.63A280.57,280.57,0,0,1,321.21,158.86Z"/><path d="M293.19,144.3a181.6,181.6,0,0,0-28-35.52v36.88q5.21,0,10.4-.18Q284.47,145.15,293.19,144.3Z"/><path d="M315.91,211.77a153,153,0,0,0-13.47-50q-12.92,1.57-26.19,2.07-5.52.19-11.06.2v58.77h51.3Q316.4,217.28,315.91,211.77Z"/><path d="M297.41,301.66q15-30.46,18.23-60.47H265.19V300q5.54,0,11.06.2Q286.95,300.55,297.41,301.66Z"/><path d="M275.59,318.52q-5.19-.18-10.4-.18v33.11a296,296,0,0,0,22.6-32.22Q281.73,318.75,275.59,318.52Z"/></svg>