<?xml version="1.0" encoding="utf-8"?>
<!-- Generator: Adobe Illustrator 23.0.1, SVG Export Plug-In . SVG Version: 6.00 Build 0)  -->
<svg version="1.2" baseProfile="tiny" id="Layer_1" xmlns="http://www.w3.org/2000/svg" xmlns:xlink="http://www.w3.org/1999/xlink"
	 x="0px" y="0px" viewBox="0 0 512 512" xml:space="preserve">
<path fill="#333333" d="M500.9,386.208c15.783-26.66,6.08-61.322-21.474-77.582l-114.391-67.527l99.556-87.874
	c24.039-21.249,26.883-57.195,6.468-80.369c-20.412-23.245-56.553-24.793-80.537-3.541l-99.556,87.871L238.202,35.347
	C225.431,5.983,192.134-7.807,163.69,4.504c-28.334,12.299-40.939,46.07-28.112,75.434l52.764,121.813L56.212,214.41
	c-31.957,3.041-55.439,30.398-52.427,61.102c2.956,30.829,31.066,53.36,62.995,50.35l131.377-12.662l-28.64,128.783
	c-6.945,31.289,11.74,62.076,41.941,68.712c30.148,6.722,60.377-13.219,67.237-44.339l29.504-128.949l114.448,67.541
	C450.144,421.181,485.283,412.731,500.9,386.208z"/>
</svg>
