<svg id="Layer_1" data-name="Layer 1" xmlns="http://www.w3.org/2000/svg" viewBox="0 0 512 512"><title>word-space-condensed</title><path d="M459.63,145.3H320.39l45.42,41.23,0,0a3.56,3.56,0,0,1,.18,5l-13.11,14.09a3.55,3.55,0,0,1-5,.2l-78.12-71.34a2.5,2.5,0,0,1-.23-.23,3.56,3.56,0,0,1,.23-5l77.75-70.91a3.57,3.57,0,0,1,5,.2l13.11,14.08,0,0a3.55,3.55,0,0,1-.25,5L320,119H459.63Z"/><path d="M59.39,118.46H198.62L153.2,77.23l0,0a3.56,3.56,0,0,1-.18-5L166.1,58.08a3.55,3.55,0,0,1,5-.2l78.12,71.34a2.5,2.5,0,0,1,.23.23,3.56,3.56,0,0,1-.23,5l-77.75,70.91a3.57,3.57,0,0,1-5-.2l-13.11-14.08,0-.05a3.55,3.55,0,0,1,.25-5L199,144.81H59.39Z"/><path d="M250.38,430.94H15V258.78H250.38ZM45,400.94H220.38V288.78H45Z"/><path d="M433.69,430.94H261.54V258.78H433.69Zm-142.15-30H403.69V288.78H291.54Z"/><path d="M510,288.78h-34V400.93h34v30h-64V258.78h64Z"/></svg>
